HIERARCHY
ROOT root
{
	OFFSET	0	13.1	24.9
	CHANNELS 6  Xposition Yposition Zposition Xrotation Yrotation Zrotation
	JOINT spine_1
	{
		OFFSET	0	9.99999	0
		CHANNELS 3  Xrotation Yrotation Zrotation
		JOINT spine_2
		{
			OFFSET	0	112	-10
			CHANNELS 3  Xrotation Yrotation Zrotation
			JOINT spine_3
			{
				OFFSET	0	206.5	19.3
				CHANNELS 3  Xrotation Yrotation Zrotation
				JOINT spine_4
				{
					OFFSET	0	110.4	14.6
					CHANNELS 3  Xrotation Yrotation Zrotation
					JOINT neck_1
					{
						OFFSET	0	71.8	-50.3
						CHANNELS 3  Xrotation Yrotation Zrotation
						JOINT neck_2
						{
							OFFSET	0	86.2	-25.8
							CHANNELS 3  Xrotation Yrotation Zrotation
							JOINT head_ee
							{
								OFFSET	0	179.8	-8.7
								CHANNELS 3  Xrotation Yrotation Zrotation
								End Site
								{
									OFFSET	1	0	0
								}
							}
						}
					}
					JOINT left_clavicle
					{
						OFFSET	-43.2	22.4	-70.8
						CHANNELS 3  Xrotation Yrotation Zrotation
						JOINT left_shoulder
						{
							OFFSET	-93.9	-5.79999	48.7
							CHANNELS 3  Xrotation Yrotation Zrotation
							JOINT left_elbow
							{
								OFFSET	-291.4	-30.8	15.2
								CHANNELS 3  Xrotation Yrotation Zrotation
								JOINT left_lowarm_twist
								{
									OFFSET	-110.7	-3.89999	13.6
									CHANNELS 3  Xrotation Yrotation Zrotation
									JOINT left_hand
									{
										OFFSET	-110.7	-3.89999	13.6
										CHANNELS 3  Xrotation Yrotation Zrotation
										JOINT left_ee
										{
											OFFSET	-80.8	-5.10001	12.1
											CHANNELS 3  Xrotation Yrotation Zrotation
											End Site
											{
												OFFSET	1	0	0
											}
										}
									}
								}
							}
						}
					}
					JOINT right_clavicle
					{
						OFFSET	43.2	22.4	-70.8
						CHANNELS 3  Xrotation Yrotation Zrotation
						JOINT right_shoulder
						{
							OFFSET	93.9	-5.79999	48.7
							CHANNELS 3  Xrotation Yrotation Zrotation
							JOINT right_elbow
							{
								OFFSET	291.4	-30.8	15.2
								CHANNELS 3  Xrotation Yrotation Zrotation
								JOINT right_lowarm_twist
								{
									OFFSET	110.7	-3.89999	13.6
									CHANNELS 3  Xrotation Yrotation Zrotation
									JOINT right_hand
									{
										OFFSET	110.7	-3.89999	13.6
										CHANNELS 3  Xrotation Yrotation Zrotation
										JOINT right_ee
										{
											OFFSET	80.8	-5.10001	12.1
											CHANNELS 3  Xrotation Yrotation Zrotation
											End Site
											{
												OFFSET	1	0	0
											}
										}
									}
								}
							}
						}
					}
				}
			}
		}
	}
	JOINT left_hip
	{
		OFFSET	-82.8	-127.5	0.300001
		CHANNELS 3  Xrotation Yrotation Zrotation
		JOINT left_knee
		{
			OFFSET	-28.2	-396.7	2.2
			CHANNELS 3  Xrotation Yrotation Zrotation
			JOINT left_ankle
			{
				OFFSET	-11.7	-411.3	35.4
				CHANNELS 3  Xrotation Yrotation Zrotation
				JOINT left_toes
				{
					OFFSET	0	-60	-88.6
					CHANNELS 3  Xrotation Yrotation Zrotation
					JOINT left_foot_ee
					{
						OFFSET	-22.5	-16.5	-42.2
						CHANNELS 3  Xrotation Yrotation Zrotation
						End Site
						{
							OFFSET	1	0	0
						}
					}
				}
			}
		}
	}
	JOINT right_hip
	{
		OFFSET	82.8	-127.5	0.300001
		CHANNELS 3  Xrotation Yrotation Zrotation
		JOINT right_knee
		{
			OFFSET	28.2	-396.7	2.2
			CHANNELS 3  Xrotation Yrotation Zrotation
			JOINT right_ankle
			{
				OFFSET	11.7	-411.3	35.4
				CHANNELS 3  Xrotation Yrotation Zrotation
				JOINT right_toes
				{
					OFFSET	0	-60	-88.6
					CHANNELS 3  Xrotation Yrotation Zrotation
					JOINT right_foot_ee
					{
						OFFSET	22.5	-16.5	-42.2
						CHANNELS 3  Xrotation Yrotation Zrotation
						End Site
						{
							OFFSET	1	0	0
						}
					}
				}
			}
		}
	}
}
MOTION
Frames: 13
Frame Time: 0.02
1694.71 719.365 -467.54 152.64 -68.0195 156.982 -4.94448 -0.401259 -0.518287 -4.9444 -0.367467 -0.542769 -4.94053 -0.191934 -0.626729 -4.94097 -0.288504 -0.588553 -9.63861 7.91723 11.9467 -9.25931 6.70788 13.5536 -0.0 0.0 -0.0 4.52204 21.248 8.98887 -9.05556 -14.7677 64.9504 0.943474 -25.0495 0.209596 -74.4933 -7.12013 5.31993 0.435403 14.0157 8.49272 -0.0 0.0 -0.0 9.63047 22.6482 -18.3637 6.75117 11.2216 -61.6982 1.30799 32.9392 -0.386705 80.9168 3.94465 8.6606 -1.81689 -26.0194 -0.122647 0.0 0.0 0.0 16.2338 27.9604 -23.9846 -36.9388 -0.283588 5.56495 18.5992 15.8201 -2.58439 5.53983 -0.0 -0.0 -0.0 0.0 -0.0 3.23281 30.0027 -12.8394 -1.30654 -0.0515879 -0.193866 25.207 -9.11119 3.35778 -19.1041 0.0 0.0 0.0 0.0 0.0 
1696.84 722.155 -467.311 152.746 -68.3999 157.692 -5.00283 -0.511636 -0.570741 -5.00278 -0.474283 -0.60214 -4.99731 -0.275915 -0.71511 -4.99782 -0.385388 -0.662564 -8.64023 8.55457 12.1229 -8.25143 7.52625 13.8382 -0.0 0.0 -0.0 4.92316 20.3776 9.59891 -8.77691 -15.0811 65.3966 0.691812 -18.9168 0.115255 -74.3034 -7.09587 5.3201 0.548722 14.0242 9.21267 -0.0 0.0 -0.0 9.72289 24.1115 -18.4356 6.34788 11.2088 -61.4835 1.30936 32.9665 -0.387448 80.7905 3.92999 8.6537 -1.575 -25.8754 -1.40177 0.0 0.0 0.0 16.2961 28.7557 -24.4541 -33.6837 -0.114565 5.09436 17.326 16.3337 -2.42354 4.56554 -0.0 -0.0 -0.0 0.0 -0.0 4.20442 30.2022 -13.7371 -0.610206 -0.0246446 -0.0903998 21.1805 -9.1792 2.87801 -18.9265 0.0 0.0 0.0 0.0 0.0 
1701.97 723.049 -467.824 153.001 -68.9544 157.947 -4.89489 -0.564089 -0.431909 -4.89495 -0.535462 -0.466928 -4.89034 -0.37533 -0.603215 -4.89055 -0.465885 -0.53637 -7.83719 7.99956 10.5339 -7.54524 7.42245 12.1336 -0.0 0.0 -0.0 4.80222 21.6943 9.38685 -9.4983 -14.8183 65.5527 0.733276 -19.9632 0.129055 -73.905 -7.04495 5.32019 0.51978 14.1758 9.08638 -0.0 0.0 -0.0 9.3236 21.0386 -17.8143 5.60156 11.7905 -62.6386 1.48677 36.3695 -0.488412 80.4225 3.88734 8.6334 -1.5966 -25.8187 -1.25544 0.0 0.0 0.0 16.3312 28.4266 -24.3212 -33.8189 -0.12105 5.11409 17.7829 16.0899 -2.48117 4.91855 -0.0 -0.0 -0.0 0.0 -0.0 4.13426 30.0455 -13.4772 -0.44121 -0.017916 -0.065338 20.9445 -10.4747 2.85221 -19.1264 0.0 0.0 0.0 0.0 0.0 
1707.8 726.037 -468.799 154.219 -69.0695 159.698 -4.65359 -0.424212 -0.514538 -4.65353 -0.390612 -0.540488 -4.64948 -0.217935 -0.630243 -4.64989 -0.314734 -0.587917 -8.15011 8.07247 10.0466 -7.88784 7.97982 11.6784 -0.0 0.0 -0.0 4.87812 21.2483 9.50935 -9.46284 -15.4955 66.773 0.569046 -15.7427 0.0786724 -72.6094 -6.87936 5.31804 1.26512 12.2668 13.169 -0.0 0.0 -0.0 9.18927 20.1536 -17.584 4.45992 12.6941 -62.7029 1.56358 37.7569 -0.534705 80.2192 3.86384 8.62208 -1.34614 -26.0104 -2.73687 0.0 0.0 0.0 17.222 37.606 -26.6617 -26.268 0.168823 3.99238 18.2321 10.6047 -2.51343 4.21891 -0.0 -0.0 -0.0 0.0 -0.0 5.3854 30.5492 -13.9767 -1.15669 -0.045896 -0.171573 17.7144 -12.3213 2.45278 -20.0515 0.0 0.0 0.0 0.0 0.0 
1716.57 725.719 -472.444 155.081 -69.5093 160.855 -4.40048 -0.369595 -0.522657 -4.40039 -0.335589 -0.545116 -4.39684 -0.166643 -0.618061 -4.39727 -0.262161 -0.583988 -6.4166 8.53588 9.99321 -6.15382 8.48803 11.6589 -0.0 0.0 -0.0 4.56285 20.497 9.06133 -10.4657 -15.9041 68.3124 0.526573 -14.6199 0.0675492 -73.5623 -7.00115 5.31999 1.46775 11.2163 14.1212 -0.0 0.0 -0.0 8.82594 17.888 -16.9373 3.61397 11.1528 -62.9906 1.70269 40.143 -0.622174 80.226 3.86463 8.62246 -1.54131 -26.3359 -1.79852 0.0 0.0 0.0 18.7187 37.2159 -27.5777 -27.9339 0.117642 4.2429 16.5947 10.5536 -2.30344 4.86857 -0.0 -0.0 -0.0 0.0 -0.0 5.16773 30.6443 -14.009 -0.855867 -0.0342936 -0.126865 18.1811 -12.495 2.51312 -19.9816 0.0 0.0 0.0 0.0 0.0 
1722.4 724.371 -476.469 154.82 -70.6345 161.117 -4.26134 -0.330472 -0.882773 -4.26095 -0.273632 -0.90201 -4.25577 -0.0080272 -0.942564 -4.25697 -0.15678 -0.929469 -6.18472 7.94569 8.36455 -6.00113 8.54924 9.91025 -0.0 0.0 -0.0 4.89391 20.5218 9.55172 -11.0462 -15.7555 68.5369 0.51677 -14.3591 0.0650964 -73.7748 -7.02832 5.32015 1.8615 9.35103 16.0777 -0.0 0.0 -0.0 7.95334 15.165 -15.1878 0.697529 12.8606 -62.8151 1.87688 42.9109 -0.737694 80.1552 3.85645 8.61849 -1.29351 -26.6698 -3.31846 0.0 0.0 0.0 22.7601 42.6832 -31.4199 -26.4022 0.16497 4.01262 18.0941 3.63166 -2.49676 3.2643 -0.0 -0.0 -0.0 0.0 -0.0 5.18159 31.1243 -14.0864 0.496286 0.0207538 0.0733304 17.5505 -14.8389 2.44346 -20.8294 0.0 0.0 0.0 0.0 0.0 
1730.47 726.41 -475.843 155.971 -70.928 162.366 -4.03583 -0.23103 -0.956563 -4.03534 -0.169696 -0.969323 -4.03157 0.106866 -0.978245 -4.0329 -0.0489628 -0.982845 -4.55167 8.05866 7.38558 -4.40163 9.17719 8.87988 -0.0 0.0 -0.0 5.08049 20.4132 9.83226 -11.6663 -17.2333 68.7757 0.375724 -10.5436 0.0346685 -73.5561 -7.00035 5.31998 2.31674 8.42599 18.8444 -0.0 0.0 -0.0 7.82604 12.4307 -15.0483 -0.766388 12.1094 -63.3059 2.08686 45.9457 -0.884732 80.1422 3.85495 8.61776 -1.25768 -27.1108 -3.70793 0.0 0.0 0.0 26.0135 46.9227 -34.3523 -25.0189 0.202408 3.80363 17.4178 3.01552 -2.41248 2.3236 -0.0 -0.0 -0.0 0.0 -0.0 5.42169 30.5492 -14.7066 1.03384 0.0439507 0.152557 14.4593 -16.8054 2.04802 -21.8028 0.0 0.0 0.0 0.0 0.0 
1738.27 726.503 -477.228 155.935 -71.8466 162.795 -3.78329 -0.147256 -0.992394 -3.78275 -0.0838119 -0.999752 -3.78045 0.193526 -0.984418 -3.7818 0.0356352 -1.00262 -4.64953 7.60533 6.47781 -4.53239 9.0534 7.88446 -0.0 0.0 -0.0 5.02471 20.7475 9.73937 -12.2124 -18.2637 68.2993 0.360426 -10.1234 0.0319244 -73.7646 -7.02701 5.32014 2.60929 7.28108 20.4668 -0.0 0.0 -0.0 7.60057 10.8788 -14.6291 -1.81467 12.1684 -63.0717 2.19956 47.449 -0.96676 80.1682 3.85796 8.61922 -1.22425 -27.2713 -3.96102 0.0 0.0 0.0 28.8995 50.0198 -37.1642 -22.9352 0.249245 3.48731 18.2002 -0.67548 -2.5294 1.65964 -0.0 -0.0 -0.0 0.0 -0.0 5.69654 30.1154 -15.1573 0.663046 0.0278704 0.0979308 14.8638 -18.4283 2.11268 -22.2952 0.0 0.0 0.0 0.0 0.0 
1744.82 728.302 -478.852 155.444 -72.5526 162.762 -3.5328 -0.0614546 -1.09812 -3.53213 0.00854189 -1.09981 -3.53143 0.305204 -1.05665 -3.53297 0.134507 -1.09158 -5.5583 7.11933 5.77675 -5.46796 8.83385 7.12997 -0.0 0.0 -0.0 4.73954 21.6798 9.29634 -12.8769 -18.8072 68.5526 0.469347 -13.089 0.0538449 -74.2091 -7.08381 5.32015 2.68883 6.46537 20.7328 -0.0 0.0 -0.0 7.55327 9.78899 -14.5684 -2.30058 11.239 -63.556 2.12646 46.4835 -0.913323 79.5749 3.78961 8.58562 -1.43195 -27.1988 -2.78929 0.0 0.0 0.0 30.032 52.5381 -38.6716 -20.062 0.294897 3.04885 18.6204 -5.18854 -2.61943 1.05068 -0.0 -0.0 -0.0 0.0 -0.0 5.35102 29.8491 -15.3071 -0.184627 -0.0075584 -0.0273246 17.7072 -19.41 2.4978 -22.4679 0.0 0.0 0.0 0.0 0.0 
1750.13 730.224 -479.602 155.912 -73.1621 163.194 -3.29001 -0.0404543 -1.15067 -3.28928 0.0328432 -1.15092 -3.28906 0.337758 -1.10074 -3.29071 0.159691 -1.14026 -4.89896 7.27293 5.40237 -4.81482 9.29784 6.74583 -0.0 0.0 -0.0 4.86012 22.696 9.44143 -12.7725 -20.0142 68.2616 0.43855 -12.257 0.0470881 -74.3239 -7.09848 5.32008 2.86763 6.44701 21.9878 -0.0 0.0 -0.0 7.40609 8.86203 -14.2875 -2.87222 11.1331 -63.127 2.303 48.7571 -1.04376 80.0273 3.84169 8.6113 -1.15687 -26.9285 -4.1847 0.0 0.0 0.0 30.4476 53.0851 -39.0429 -18.5762 0.309865 2.82137 18.4911 -7.19818 -2.6247 0.177909 -0.0 -0.0 -0.0 0.0 -0.0 5.09033 29.7244 -15.315 0.488379 0.0204183 0.0721634 17.3136 -20.295 2.45451 -22.3633 0.0 0.0 0.0 0.0 0.0 
1760.77 730.094 -480.199 152.832 -74.9093 160.65 -3.01939 -0.170774 -1.13843 -3.01868 -0.0979911 -1.14699 -3.01576 0.205166 -1.13274 -3.01755 0.0237085 -1.15092 -5.40509 6.36307 4.12125 -5.35568 8.65298 5.31412 -0.0 0.0 -0.0 5.26599 23.5576 9.98184 -15.5901 -22.938 66.1034 0.478869 -13.3451 0.0560219 -75.6365 -7.26617 5.31718 3.24281 6.67541 24.7575 -0.0 0.0 -0.0 7.49343 6.27946 -14.5377 -2.79289 8.65422 -63.8191 2.29945 48.7132 -1.04109 80.1813 3.85946 8.61995 -1.07055 -25.6698 -4.12827 0.0 0.0 0.0 31.2163 55.516 -40.6659 -13.107 0.31407 1.98256 15.3297 -12.6437 -2.27468 -0.860606 0.0 0.0 -0.0 0.0 -0.0 5.37081 29.476 -16.1704 -2.07626 -0.0799028 -0.308599 21.2541 -22.5646 2.99421 -23.0725 0.0 0.0 0.0 0.0 0.0 
1767.48 731.543 -483.579 152.592 -75.0405 160.344 -2.92838 -0.188973 -1.19944 -2.92758 -0.112273 -1.20903 -2.92416 0.205683 -1.19669 -2.92616 0.0141211 -1.21415 -7.18954 5.94623 4.19509 -7.14835 8.03947 5.4011 -0.0 0.0 -0.0 5.51005 24.4008 10.2791 -17.0265 -23.6797 65.1177 0.547492 -15.1744 0.0729272 -75.5313 -7.25274 5.31756 3.39323 6.63338 25.8381 -0.0 0.0 -0.0 7.22768 5.90874 -13.9928 -1.97325 6.41509 -63.6803 2.33392 49.1352 -1.06707 80.9932 3.95354 8.66476 -1.04465 -24.1676 -3.63557 0.0 0.0 0.0 29.8922 57.1543 -39.7579 -10.1028 0.282323 1.52274 14.2759 -16.3405 -2.18469 -2.91697 0.0 0.0 -0.0 0.0 -0.0 5.21971 29.6775 -15.9335 -3.90666 -0.14102 -0.582853 24.3884 -23.54 3.4046 -23.8275 0.0 0.0 0.0 0.0 0.0 
1776.67 732.909 -484.598 152.462 -75.4551 160.115 -2.6187 -0.237383 -1.36993 -2.61767 -0.149738 -1.38226 -2.61274 0.207037 -1.37485 -2.61538 -0.0126705 -1.39029 -7.06246 6.12373 3.50305 -7.03495 8.85497 4.74111 -0.0 0.0 -0.0 5.52712 24.0362 10.3227 -18.9422 -25.2064 64.2841 0.586002 -16.1875 0.0833362 -75.4819 -7.24642 5.31773 3.64718 6.42445 27.6396 -0.0 0.0 -0.0 7.17374 4.92134 -13.9006 -2.04562 4.9532 -63.9745 2.24823 48.0727 -1.00279 80.7933 3.93032 8.65385 -1.13335 -23.4991 -2.8418 0.0 0.0 0.0 28.8458 57.7199 -39.0442 -8.79106 0.260909 1.32261 13.8023 -18.0808 -2.14661 -3.56961 0.0 0.0 -0.0 0.0 -0.0 4.49967 29.1768 -15.7843 -5.02746 -0.174103 -0.751677 27.6068 -24.4802 3.81441 -25.018 0.0 0.0 0.0 0.0 0.0 
